<?xml version="1.0" encoding="UTF-8" ?>
<!DOCTYPE svg PUBLIC "-//W3C//DTD SVG 1.1//EN" "http://www.w3.org/Graphics/SVG/1.1/DTD/svg11.dtd">
<svg width="755pt" height="759pt" viewBox="0 0 755 759" version="1.1" xmlns="http://www.w3.org/2000/svg">
<g id="#91FFE7ff">
<path fill="#91FFE7" opacity="1.00" d=" M 369.24 2.92 C 373.28 2.59 377.36 2.48 381.40 2.90 C 381.93 10.14 373.81 7.88 369.17 7.91 C 369.19 6.25 369.21 4.58 369.24 2.92 Z" />
<path fill="#91FFE7" opacity="1.00" d=" M 354.03 2.94 C 357.85 2.85 361.68 2.82 365.50 2.80 C 367.74 10.32 358.49 7.86 353.92 8.08 C 353.95 6.37 353.99 4.65 354.03 2.94 Z" />
<path fill="#91FFE7" opacity="1.00" d=" M 384.43 8.15 C 382.67 0.71 391.38 3.00 395.91 3.01 C 395.87 4.66 395.84 6.30 395.81 7.94 C 392.02 8.07 388.22 8.12 384.43 8.15 Z" />
<path fill="#91FFE7" opacity="1.00" d=" M 400.12 3.01 C 403.74 3.32 407.35 3.71 410.97 4.04 C 411.02 5.80 411.06 7.55 411.10 9.31 C 407.02 9.29 402.95 8.90 398.98 7.95 C 399.35 6.30 399.73 4.66 400.12 3.01 Z" />
<path fill="#91FFE7" opacity="1.00" d=" M 338.76 4.01 C 342.57 3.92 346.37 3.85 350.18 3.82 C 350.15 5.59 350.12 7.37 350.10 9.14 C 346.30 9.23 342.51 9.26 338.72 9.24 C 338.72 7.49 338.73 5.75 338.76 4.01 Z" />
<path fill="#91FFE7" opacity="1.00" d=" M 414.85 4.27 C 419.44 4.98 428.49 3.48 426.29 10.88 C 422.49 10.67 418.69 10.35 414.92 9.85 C 414.88 7.99 414.86 6.13 414.85 4.27 Z" />
<path fill="#91FFE7" opacity="1.00" d=" M 322.95 6.78 C 326.84 5.94 330.77 5.26 334.75 4.90 C 334.94 6.67 335.14 8.44 335.34 10.21 C 331.62 10.77 327.89 11.23 324.14 11.45 C 323.74 9.89 323.34 8.33 322.95 6.78 Z" />
<path fill="#91FFE7" opacity="1.00" d=" M 430.32 6.18 C 434.25 6.61 438.17 7.25 442.03 8.10 C 441.59 9.76 441.15 11.41 440.71 13.07 C 437.02 12.65 433.37 11.99 429.77 11.13 C 429.94 9.48 430.12 7.83 430.32 6.18 Z" />
<path fill="#91FFE7" opacity="1.00" d=" M 308.50 8.63 C 312.18 7.99 315.88 7.43 319.61 7.14 C 319.89 8.79 320.18 10.44 320.47 12.10 C 316.53 13.05 312.52 13.75 308.46 13.77 C 308.47 12.05 308.48 10.34 308.50 8.63 Z" />
<path fill="#91FFE7" opacity="1.00" d=" M 445.46 8.95 C 449.11 9.45 452.74 10.09 456.33 10.88 C 456.23 12.57 456.12 14.27 456.02 15.96 C 451.91 15.51 447.82 14.79 443.92 13.41 C 444.43 11.92 444.95 10.44 445.46 8.95 Z" />
<path fill="#91FFE7" opacity="1.00" d=" M 292.94 12.10 C 296.86 11.13 300.83 10.34 304.84 9.82 C 304.87 11.50 304.89 13.18 304.92 14.86 C 301.39 15.69 297.84 16.47 294.28 17.13 C 293.83 15.46 293.37 13.78 292.94 12.10 Z" />
<path fill="#91FFE7" opacity="1.00" d=" M 459.98 11.84 C 464.24 12.55 468.44 13.56 472.51 15.01 C 470.84 21.53 464.07 18.20 459.69 17.01 C 459.78 15.29 459.87 13.56 459.98 11.84 Z" />
<path fill="#91FFE7" opacity="1.00" d=" M 279.11 15.27 C 282.44 14.55 285.77 13.79 289.08 12.97 C 289.74 14.60 290.40 16.23 291.05 17.87 C 287.11 19.10 283.06 19.97 278.95 20.41 C 278.99 18.69 279.05 16.98 279.11 15.27 Z" />
<path fill="#91FFE7" opacity="1.00" d=" M 475.30 15.78 C 478.87 16.41 482.38 17.34 485.88 18.32 C 485.88 19.97 485.87 21.63 485.86 23.28 C 481.77 23.15 477.82 22.04 474.00 20.68 C 474.42 19.04 474.85 17.41 475.30 15.78 Z" />
<path fill="#91FFE7" opacity="1.00" d=" M 263.53 20.04 C 267.23 18.87 270.98 17.85 274.78 17.04 C 275.20 18.69 275.61 20.35 276.03 22.01 C 272.41 23.11 268.76 24.12 265.09 25.05 C 264.56 23.38 264.04 21.71 263.53 20.04 Z" />
<path fill="#91FFE7" opacity="1.00" d=" M 490.29 19.89 C 493.63 20.96 496.96 22.07 500.31 23.10 C 500.21 24.80 500.11 26.49 500.00 28.18 C 495.82 27.49 491.76 26.22 488.01 24.25 C 488.77 22.80 489.53 21.35 490.29 19.89 Z" />
<path fill="#91FFE7" opacity="1.00" d=" M 248.90 25.13 C 252.69 23.60 256.63 22.41 260.68 21.76 C 260.76 23.42 260.85 25.09 260.94 26.75 C 257.57 27.81 254.22 28.91 250.86 29.99 C 250.20 28.37 249.54 26.75 248.90 25.13 Z" />
<path fill="#91FFE7" opacity="1.00" d=" M 504.34 24.76 C 508.02 25.91 511.65 27.21 515.27 28.55 C 514.65 30.33 514.01 32.10 513.35 33.86 C 509.95 32.40 506.51 31.03 503.04 29.75 C 503.46 28.09 503.90 26.43 504.34 24.76 Z" />
<path fill="#91FFE7" opacity="1.00" d=" M 234.84 31.18 C 237.61 28.05 242.10 28.09 245.80 26.70 C 246.29 28.21 246.78 29.73 247.27 31.25 C 243.85 32.79 240.39 34.23 236.89 35.56 C 236.20 34.10 235.52 32.64 234.84 31.18 Z" />
<path fill="#91FFE7" opacity="1.00" d=" M 516.74 34.93 C 517.52 33.40 518.30 31.87 519.10 30.35 C 523.31 31.98 531.93 33.48 527.45 39.59 C 523.85 38.11 520.29 36.54 516.74 34.93 Z" />
<path fill="#91FFE7" opacity="1.00" d=" M 221.06 36.39 C 224.58 34.97 228.13 33.59 231.77 32.51 C 232.23 34.05 232.69 35.60 233.15 37.14 C 229.63 38.79 226.02 40.25 222.27 41.29 C 221.86 39.66 221.45 38.02 221.06 36.39 Z" />
<path fill="#91FFE7" opacity="1.00" d=" M 531.94 36.69 C 535.99 37.57 539.82 39.21 543.47 41.16 C 542.70 42.79 541.92 44.40 541.14 46.01 C 537.17 43.85 529.57 42.89 531.94 36.69 Z" />
<path fill="#91FFE7" opacity="1.00" d=" M 207.05 43.42 C 210.42 41.62 213.88 39.95 217.50 38.68 C 218.12 40.14 218.74 41.59 219.36 43.05 C 216.00 44.96 212.57 46.73 209.02 48.24 C 208.35 46.63 207.69 45.03 207.05 43.42 Z" />
<path fill="#91FFE7" opacity="1.00" d=" M 544.32 47.33 C 545.21 45.96 546.11 44.60 547.02 43.24 C 550.48 44.88 553.91 46.58 557.28 48.41 C 555.03 55.46 548.15 49.74 544.32 47.33 Z" />
<path fill="#91FFE7" opacity="1.00" d=" M 195.09 55.30 C 191.73 49.28 199.59 47.29 203.77 45.64 C 204.50 47.07 205.22 48.51 205.95 49.95 C 202.44 51.95 198.87 53.86 195.09 55.30 Z" />
<path fill="#91FFE7" opacity="1.00" d=" M 557.70 54.80 C 558.69 53.30 559.70 51.80 560.72 50.31 C 564.50 52.80 572.39 54.84 568.30 60.62 C 564.67 58.86 561.16 56.88 557.70 54.80 Z" />
<path fill="#91FFE7" opacity="1.00" d=" M 180.01 58.98 C 183.17 56.71 186.51 54.72 189.95 52.91 C 190.88 54.29 191.81 55.67 192.73 57.06 C 189.57 59.21 186.28 61.18 182.93 63.02 C 181.96 61.67 180.98 60.33 180.01 58.98 Z" />
<path fill="#91FFE7" opacity="1.00" d=" M 573.78 58.00 C 576.97 60.01 580.11 62.10 583.25 64.19 C 582.41 65.60 581.57 67.00 580.73 68.40 C 577.30 66.72 574.05 64.71 570.92 62.54 C 571.85 61.01 572.81 59.50 573.78 58.00 Z" />
<path fill="#91FFE7" opacity="1.00" d=" M 167.39 66.99 C 170.59 64.73 173.93 62.64 177.45 60.89 C 178.16 62.31 178.88 63.74 179.59 65.16 C 176.52 67.34 173.36 69.40 170.14 71.34 C 169.22 69.90 168.30 68.45 167.39 66.99 Z" />
<path fill="#91FFE7" opacity="1.00" d=" M 583.68 70.67 C 584.68 69.24 585.70 67.83 586.75 66.42 C 589.78 68.48 592.74 70.64 595.65 72.89 C 594.91 74.31 594.18 75.73 593.46 77.15 C 590.02 75.27 586.79 73.05 583.68 70.67 Z" />
<path fill="#91FFE7" opacity="1.00" d=" M 154.82 76.04 C 157.77 73.69 160.84 71.49 164.00 69.43 C 165.10 70.69 166.20 71.96 167.30 73.23 C 164.30 75.65 161.19 77.93 157.98 80.08 C 156.92 78.73 155.87 77.39 154.82 76.04 Z" />
<path fill="#91FFE7" opacity="1.00" d=" M 595.89 79.13 C 596.94 77.87 597.99 76.60 599.05 75.34 C 602.19 77.45 605.20 79.73 608.09 82.16 C 607.09 83.50 606.10 84.83 605.10 86.17 C 601.92 83.96 598.85 81.62 595.89 79.13 Z" />
<path fill="#91FFE7" opacity="1.00" d=" M 142.79 85.28 C 145.69 82.79 148.73 80.46 151.96 78.43 C 152.90 79.81 153.83 81.20 154.77 82.60 C 151.84 84.84 148.91 87.10 145.91 89.25 C 144.86 87.93 143.82 86.61 142.79 85.28 Z" />
<path fill="#91FFE7" opacity="1.00" d=" M 608.02 88.83 C 609.01 87.43 610.00 86.04 611.01 84.64 C 614.21 86.85 617.22 89.33 620.08 91.98 C 619.03 93.19 617.98 94.41 616.93 95.62 C 613.90 93.44 610.94 91.17 608.02 88.83 Z" />
<path fill="#91FFE7" opacity="1.00" d=" M 131.00 95.17 C 133.82 92.53 136.76 90.04 139.86 87.75 C 140.89 89.06 141.92 90.38 142.95 91.70 C 140.08 94.26 137.16 96.77 134.13 99.13 C 133.08 97.81 132.04 96.49 131.00 95.17 Z" />
<path fill="#91FFE7" opacity="1.00" d=" M 619.85 98.06 C 620.88 96.98 621.91 95.91 622.96 94.83 C 625.80 97.16 628.59 99.55 631.30 102.02 C 630.21 103.17 629.12 104.32 628.03 105.47 C 625.20 103.11 622.47 100.64 619.85 98.06 Z" />
<path fill="#91FFE7" opacity="1.00" d=" M 119.73 105.31 C 122.48 102.62 125.29 99.99 128.25 97.53 C 134.16 102.17 126.44 106.13 122.96 109.19 C 121.88 107.90 120.80 106.60 119.73 105.31 Z" />
<path fill="#91FFE7" opacity="1.00" d=" M 630.92 108.80 C 631.94 107.46 632.96 106.13 633.99 104.80 C 637.27 107.21 640.22 110.07 642.51 113.45 C 641.28 114.35 640.06 115.25 638.84 116.15 C 636.17 113.73 633.52 111.29 630.92 108.80 Z" />
<path fill="#91FFE7" opacity="1.00" d=" M 108.72 116.28 C 111.72 113.23 116.55 105.62 120.49 111.70 C 117.86 114.46 115.18 117.17 112.51 119.88 C 111.24 118.69 109.97 117.49 108.72 116.28 Z" />
<path fill="#91FFE7" opacity="1.00" d=" M 641.59 119.03 C 642.75 117.83 643.93 116.64 645.11 115.45 C 648.00 118.12 650.72 120.97 653.20 124.03 C 651.88 125.09 650.57 126.14 649.26 127.19 C 646.63 124.54 644.06 121.83 641.59 119.03 Z" />
<path fill="#91FFE7" opacity="1.00" d=" M 98.49 127.12 C 100.87 124.36 103.39 121.72 106.02 119.19 C 107.25 120.40 108.47 121.62 109.69 122.84 C 107.14 125.66 104.54 128.42 101.91 131.16 C 100.76 129.82 99.62 128.48 98.49 127.12 Z" />
<path fill="#91FFE7" opacity="1.00" d=" M 652.00 129.35 C 653.33 128.55 654.67 127.74 656.02 126.93 C 658.87 130.44 665.88 134.75 659.95 138.83 C 656.84 136.09 654.18 132.88 652.00 129.35 Z" />
<path fill="#91FFE7" opacity="1.00" d=" M 88.40 139.01 C 90.70 136.03 93.17 133.18 95.80 130.48 C 97.03 131.46 98.27 132.44 99.51 133.43 C 97.29 136.65 94.73 139.61 92.00 142.40 C 90.80 141.28 89.60 140.15 88.40 139.01 Z" />
<path fill="#91FFE7" opacity="1.00" d=" M 661.93 141.24 C 663.28 140.27 664.64 139.30 666.01 138.35 C 668.33 141.14 670.56 144.00 672.74 146.90 C 671.66 148.09 670.59 149.27 669.52 150.46 C 666.64 147.69 664.13 144.57 661.93 141.24 Z" />
<path fill="#91FFE7" opacity="1.00" d=" M 78.80 151.07 C 81.00 148.04 83.35 145.12 85.82 142.31 C 87.13 143.24 88.43 144.17 89.74 145.12 C 87.63 148.34 85.29 151.40 82.80 154.33 C 81.46 153.25 80.13 152.16 78.80 151.07 Z" />
<path fill="#91FFE7" opacity="1.00" d=" M 671.41 153.12 C 672.69 152.17 673.98 151.23 675.28 150.30 C 677.96 153.27 680.31 156.54 682.20 160.08 C 676.82 164.73 674.03 156.75 671.41 153.12 Z" />
<path fill="#91FFE7" opacity="1.00" d=" M 69.69 163.70 C 71.88 160.39 74.22 157.18 76.75 154.13 C 77.98 155.32 79.21 156.53 80.43 157.74 C 78.25 160.62 76.14 163.55 74.02 166.48 C 72.57 165.56 71.13 164.63 69.69 163.70 Z" />
<path fill="#91FFE7" opacity="1.00" d=" M 680.30 165.85 C 681.57 164.72 682.86 163.60 684.15 162.47 C 686.60 165.42 688.77 168.60 690.69 171.92 C 689.42 173.01 688.15 174.10 686.88 175.18 C 684.65 172.09 682.48 168.96 680.30 165.85 Z" />
<path fill="#91FFE7" opacity="1.00" d=" M 61.25 176.18 C 63.30 172.97 65.39 169.80 67.63 166.73 C 68.92 167.54 70.22 168.35 71.51 169.16 C 70.05 172.77 67.72 175.91 65.66 179.20 C 64.18 178.20 62.71 177.19 61.25 176.18 Z" />
<path fill="#91FFE7" opacity="1.00" d=" M 688.69 178.27 C 689.93 177.29 691.18 176.31 692.44 175.34 C 695.21 179.01 702.41 185.18 695.03 187.86 C 692.72 184.79 690.66 181.56 688.69 178.27 Z" />
<path fill="#91FFE7" opacity="1.00" d=" M 53.28 189.28 C 55.21 186.06 56.86 182.66 59.08 179.62 C 60.52 180.48 61.96 181.34 63.40 182.21 C 61.58 185.42 59.75 188.63 57.94 191.85 C 56.38 191.01 54.82 190.15 53.28 189.28 Z" />
<path fill="#91FFE7" opacity="1.00" d=" M 696.60 191.10 C 698.06 190.24 699.53 189.37 701.02 188.52 C 703.15 191.87 705.12 195.33 706.90 198.88 C 705.25 199.37 703.60 199.87 701.95 200.36 C 700.05 197.35 698.27 194.25 696.60 191.10 Z" />
<path fill="#91FFE7" opacity="1.00" d=" M 51.16 192.90 C 52.73 193.64 54.30 194.38 55.87 195.13 C 54.13 198.41 52.33 201.66 50.55 204.92 C 48.93 204.29 47.31 203.64 45.69 203.00 C 47.32 199.53 49.16 196.16 51.16 192.90 Z" />
<path fill="#91FFE7" opacity="1.00" d=" M 704.07 204.02 C 705.61 203.33 707.16 202.66 708.72 201.99 C 710.69 205.38 712.33 208.96 713.34 212.76 C 711.74 213.14 710.14 213.53 708.55 213.90 C 707.08 210.60 705.53 207.33 704.07 204.02 Z" />
<path fill="#91FFE7" opacity="1.00" d=" M 38.86 216.86 C 40.26 213.27 42.01 209.84 43.95 206.52 C 45.43 207.10 46.90 207.69 48.38 208.29 C 47.07 211.77 45.47 215.13 43.77 218.44 C 42.13 217.92 40.49 217.39 38.86 216.86 Z" />
<path fill="#91FFE7" opacity="1.00" d=" M 710.95 217.37 C 712.57 216.80 714.19 216.25 715.83 215.70 C 717.51 219.23 719.04 222.84 720.10 226.61 C 718.50 227.01 716.92 227.41 715.33 227.80 C 713.72 224.39 712.20 220.93 710.95 217.37 Z" />
<path fill="#91FFE7" opacity="1.00" d=" M 37.16 219.96 C 38.60 220.59 40.03 221.22 41.47 221.87 C 40.86 225.59 38.98 228.86 37.53 232.29 C 35.78 231.69 34.05 231.08 32.31 230.47 C 34.12 227.05 35.56 223.47 37.16 219.96 Z" />
<path fill="#91FFE7" opacity="1.00" d=" M 717.03 231.75 C 718.66 230.98 720.30 230.23 721.95 229.50 C 723.51 233.03 724.88 236.64 726.08 240.31 C 724.52 240.82 722.92 241.21 721.69 242.34 C 720.10 238.82 718.61 235.27 717.03 231.75 Z" />
<path fill="#91FFE7" opacity="1.00" d=" M 26.98 244.64 C 28.28 240.25 29.46 232.76 35.81 235.26 C 34.83 239.37 33.13 243.26 31.14 246.97 C 29.75 246.19 28.37 245.42 26.98 244.64 Z" />
<path fill="#91FFE7" opacity="1.00" d=" M 722.96 245.42 C 724.40 244.76 725.85 244.11 727.31 243.47 C 729.21 247.05 730.61 250.87 731.42 254.85 C 729.86 255.23 728.31 255.62 726.76 256.01 C 725.30 252.55 724.01 249.02 722.96 245.42 Z" />
<path fill="#91FFE7" opacity="1.00" d=" M 25.09 248.51 C 26.79 248.96 28.50 249.42 30.19 249.90 C 29.08 253.53 27.92 257.16 26.72 260.77 C 25.10 260.39 23.48 260.01 21.86 259.63 C 22.73 255.87 23.87 252.17 25.09 248.51 Z" />
<path fill="#91FFE7" opacity="1.00" d=" M 728.00 259.33 C 729.60 258.95 731.20 258.58 732.81 258.21 C 734.40 262.00 735.66 265.93 736.22 270.01 C 729.59 271.55 729.29 263.85 728.00 259.33 Z" />
<path fill="#91FFE7" opacity="1.00" d=" M 20.14 263.25 C 21.75 263.38 23.35 263.51 24.96 263.65 C 24.30 267.64 23.29 271.57 22.12 275.44 C 20.38 274.87 18.65 274.29 16.92 273.72 C 17.99 270.23 19.09 266.75 20.14 263.25 Z" />
<path fill="#91FFE7" opacity="1.00" d=" M 732.25 274.30 C 733.85 273.73 735.46 273.18 737.08 272.63 C 738.67 276.16 739.72 279.91 740.41 283.72 C 738.86 284.22 737.33 284.72 735.80 285.22 C 734.51 281.62 733.33 277.97 732.25 274.30 Z" />
<path fill="#91FFE7" opacity="1.00" d=" M 16.07 277.63 C 17.68 278.05 19.29 278.50 20.90 278.95 C 20.06 282.67 19.07 286.35 17.85 289.97 C 16.23 289.56 14.60 289.15 12.98 288.74 C 13.82 284.98 14.86 281.28 16.07 277.63 Z" />
<path fill="#91FFE7" opacity="1.00" d=" M 372.64 281.61 C 416.59 278.46 460.53 311.09 467.50 355.22 C 478.29 400.82 445.90 450.50 400.54 460.70 C 374.54 466.41 345.55 462.59 324.28 445.68 C 286.52 418.90 275.64 361.35 302.13 323.03 C 317.33 298.98 344.51 283.85 372.64 281.61 M 360.35 318.36 C 327.29 328.14 312.38 372.34 332.82 400.13 C 350.14 427.82 393.47 432.30 415.73 408.25 C 412.91 405.04 409.92 401.98 406.80 399.07 C 396.55 407.14 383.48 412.75 370.24 409.77 C 347.85 406.22 331.79 381.29 338.38 359.50 C 343.34 338.12 367.47 324.19 388.49 330.54 C 410.46 336.02 423.96 361.46 416.51 382.79 C 412.66 383.22 408.79 383.32 404.93 383.16 C 404.36 369.78 404.83 356.38 404.70 342.99 C 386.21 342.24 359.54 338.74 352.07 360.94 C 342.33 385.01 373.52 407.57 393.84 392.18 C 402.71 399.04 414.40 397.33 424.82 396.79 C 434.56 379.97 434.22 357.71 423.80 341.27 C 411.27 320.20 383.49 310.03 360.35 318.36 Z" />
<path fill="#91FFE7" opacity="1.00" d=" M 736.63 288.32 C 738.20 287.99 739.78 287.66 741.36 287.34 C 742.47 291.11 743.38 294.94 744.11 298.80 C 742.64 299.23 741.19 299.66 739.75 300.09 C 737.95 296.41 737.04 292.38 736.63 288.32 Z" />
<path fill="#91FFE7" opacity="1.00" d=" M 12.17 292.28 C 13.80 292.65 15.44 293.02 17.08 293.39 C 16.57 297.47 15.67 301.50 14.15 305.33 C 7.26 303.80 11.48 296.92 12.17 292.28 Z" />
<path fill="#91FFE7" opacity="1.00" d=" M 740.02 303.24 C 741.65 303.11 743.30 302.98 744.95 302.87 C 745.78 306.47 746.49 310.10 746.95 313.78 C 745.14 314.09 743.35 314.40 741.56 314.70 C 740.94 310.89 740.40 307.08 740.02 303.24 Z" />
<path fill="#91FFE7" opacity="1.00" d=" M 7.16 318.94 C 7.73 314.43 6.78 305.01 13.95 307.86 C 13.54 311.76 12.86 315.63 12.10 319.48 C 10.45 319.30 8.81 319.12 7.16 318.94 Z" />
<path fill="#91FFE7" opacity="1.00" d=" M 742.98 318.32 C 744.45 317.90 745.92 317.49 747.41 317.09 C 748.41 321.02 748.89 325.07 749.25 329.12 C 747.44 329.13 745.64 329.14 743.85 329.15 C 743.52 325.54 743.24 321.93 742.98 318.32 Z" />
<path fill="#91FFE7" opacity="1.00" d=" M 6.33 322.61 C 14.43 321.65 10.51 330.40 9.84 334.98 C 8.17 334.59 6.51 334.20 4.85 333.81 C 5.05 330.04 5.57 326.30 6.33 322.61 Z" />
<path fill="#91FFE7" opacity="1.00" d=" M 744.66 332.83 C 746.41 332.89 748.17 332.96 749.93 333.04 C 750.59 336.69 751.02 340.37 751.24 344.08 C 749.54 344.39 747.84 344.70 746.15 345.00 C 745.34 340.99 744.77 336.93 744.66 332.83 Z" />
<path fill="#91FFE7" opacity="1.00" d=" M 4.18 337.89 C 5.79 337.92 7.40 337.95 9.02 337.99 C 9.08 341.69 9.01 345.40 8.80 349.10 C 6.94 349.08 5.09 349.05 3.23 349.02 C 3.54 345.31 3.87 341.60 4.18 337.89 Z" />
<path fill="#91FFE7" opacity="1.00" d=" M 746.76 347.97 C 748.39 348.07 750.04 348.17 751.69 348.28 C 751.88 351.90 752.07 355.52 752.25 359.14 C 750.56 359.46 748.87 359.77 747.19 360.09 C 746.79 356.06 746.57 352.01 746.76 347.97 Z" />
<path fill="#91FFE7" opacity="1.00" d=" M 3.13 352.98 C 4.83 352.95 6.53 352.92 8.22 352.91 C 8.28 356.84 8.12 360.78 7.71 364.69 C 5.92 364.62 4.13 364.55 2.34 364.48 C 2.52 360.64 2.85 356.81 3.13 352.98 Z" />
<path fill="#91FFE7" opacity="1.00" d=" M 365.70 363.71 C 370.37 354.13 382.38 356.44 391.06 356.31 C 391.87 365.48 393.14 378.55 382.47 382.52 C 371.54 387.36 359.66 373.98 365.70 363.71 Z" />
<path fill="#91FFE7" opacity="1.00" d=" M 746.81 363.80 C 748.68 363.58 750.56 363.37 752.45 363.19 C 752.70 367.00 752.81 370.83 752.77 374.66 C 751.13 374.77 749.51 374.89 747.89 375.00 C 747.40 371.28 747.06 367.54 746.81 363.80 Z" />
<path fill="#91FFE7" opacity="1.00" d=" M 2.20 368.14 C 3.98 368.19 5.76 368.24 7.54 368.31 C 7.44 372.22 7.27 376.13 7.04 380.04 C 5.37 380.04 3.70 380.05 2.03 380.06 C 1.95 376.08 1.96 372.10 2.20 368.14 Z" />
<path fill="#91FFE7" opacity="1.00" d=" M 748.12 378.09 C 749.76 378.34 751.40 378.61 753.05 378.89 C 752.94 382.60 752.84 386.31 752.71 390.03 C 750.88 389.98 749.05 389.94 747.23 389.89 C 747.41 385.95 747.68 382.01 748.12 378.09 Z" />
<path fill="#91FFE7" opacity="1.00" d=" M 1.97 383.74 C 3.71 383.73 5.46 383.72 7.20 383.73 C 7.50 387.51 7.73 391.30 7.83 395.10 C 5.95 395.15 4.07 395.19 2.19 395.21 C 2.01 391.39 1.97 387.57 1.97 383.74 Z" />
<path fill="#91FFE7" opacity="1.00" d=" M 746.96 393.89 C 748.75 393.84 750.54 393.81 752.35 393.79 C 752.37 397.88 752.09 401.98 751.33 406.02 C 749.83 405.67 748.35 405.34 746.87 405.01 C 746.90 401.30 746.92 397.59 746.96 393.89 Z" />
<path fill="#91FFE7" opacity="1.00" d=" M 2.94 398.93 C 4.68 398.96 6.41 398.99 8.14 399.04 C 8.24 402.64 8.27 406.25 8.28 409.87 C 6.74 410.23 5.20 410.60 3.66 410.98 C 3.00 406.99 2.87 402.96 2.94 398.93 Z" />
<path fill="#91FFE7" opacity="1.00" d=" M 746.02 409.19 C 747.79 409.06 749.57 408.94 751.36 408.83 C 751.34 412.79 751.06 416.74 750.72 420.69 C 749.08 420.72 747.44 420.74 745.81 420.77 C 745.46 416.91 745.62 413.04 746.02 409.19 Z" />
<path fill="#91FFE7" opacity="1.00" d=" M 3.91 414.07 C 5.56 414.00 7.21 413.94 8.86 413.89 C 9.19 417.62 9.64 421.33 10.13 425.05 C 8.35 425.16 6.57 425.27 4.78 425.38 C 4.22 421.63 3.96 417.85 3.91 414.07 Z" />
<path fill="#91FFE7" opacity="1.00" d=" M 744.91 423.71 C 746.54 423.99 748.19 424.27 749.85 424.56 C 749.70 428.50 749.08 432.39 748.08 436.20 C 746.43 435.71 744.79 435.24 743.16 434.75 C 743.70 431.07 744.29 427.39 744.91 423.71 Z" />
<path fill="#91FFE7" opacity="1.00" d=" M 5.67 428.82 C 7.41 428.92 9.14 429.02 10.88 429.14 C 11.38 432.78 11.79 436.43 12.22 440.08 C 10.54 440.39 8.86 440.69 7.18 441.00 C 6.23 437.01 5.67 432.92 5.67 428.82 Z" />
<path fill="#91FFE7" opacity="1.00" d=" M 742.95 438.67 C 744.55 438.96 746.16 439.27 747.78 439.58 C 747.48 443.59 746.79 447.56 745.85 451.48 C 738.02 451.50 741.93 443.30 742.95 438.67 Z" />
<path fill="#91FFE7" opacity="1.00" d=" M 8.06 444.41 C 9.69 444.23 11.33 444.06 12.96 443.90 C 13.73 447.53 14.46 451.18 15.13 454.84 C 13.40 455.29 11.67 455.74 9.94 456.19 C 8.92 452.34 8.28 448.39 8.06 444.41 Z" />
<path fill="#91FFE7" opacity="1.00" d=" M 740.16 454.01 C 741.84 454.29 743.53 454.58 745.22 454.88 C 744.45 458.64 743.64 462.40 742.82 466.16 C 741.10 465.73 739.39 465.29 737.70 464.86 C 738.34 461.20 739.17 457.58 740.16 454.01 Z" />
<path fill="#91FFE7" opacity="1.00" d=" M 10.71 459.82 C 12.40 459.43 14.10 459.06 15.80 458.69 C 16.77 462.43 17.62 466.20 18.30 470.00 C 16.63 470.31 14.95 470.62 13.27 470.92 C 12.33 467.24 11.49 463.54 10.71 459.82 Z" />
<path fill="#91FFE7" opacity="1.00" d=" M 736.95 468.41 C 738.61 468.92 740.28 469.46 741.95 470.01 C 740.96 473.51 740.06 477.02 739.15 480.54 C 737.54 480.38 735.95 480.22 734.36 480.05 C 734.06 476.14 736.17 472.26 736.95 468.41 Z" />
<path fill="#91FFE7" opacity="1.00" d=" M 14.22 474.94 C 15.83 474.31 17.44 473.69 19.05 473.07 C 20.35 476.81 21.36 480.65 22.12 484.54 C 20.63 485.00 19.14 485.46 17.66 485.94 C 16.26 482.35 15.18 478.66 14.22 474.94 Z" />
<path fill="#91FFE7" opacity="1.00" d=" M 733.02 482.89 C 734.61 483.53 736.21 484.19 737.81 484.85 C 736.82 488.28 735.85 491.71 734.90 495.15 C 733.18 495.03 731.47 494.90 729.77 494.77 C 730.44 490.71 731.56 486.73 733.02 482.89 Z" />
<path fill="#91FFE7" opacity="1.00" d=" M 18.51 488.63 C 25.19 486.48 25.33 494.54 27.04 498.91 C 25.35 499.37 23.67 499.83 21.98 500.30 C 20.46 496.52 19.27 492.62 18.51 488.63 Z" />
<path fill="#91FFE7" opacity="1.00" d=" M 728.15 497.87 C 729.84 498.26 731.54 498.65 733.25 499.06 C 732.09 502.85 730.83 506.61 729.38 510.31 C 727.77 509.58 726.16 508.87 724.57 508.15 C 725.82 504.74 727.00 501.31 728.15 497.87 Z" />
<path fill="#91FFE7" opacity="1.00" d=" M 23.77 502.73 C 29.87 501.86 30.25 508.57 31.94 512.76 C 30.52 513.56 29.09 514.35 27.67 515.16 C 25.35 511.40 23.94 507.16 23.77 502.73 Z" />
<path fill="#91FFE7" opacity="1.00" d=" M 723.08 511.90 C 724.76 512.40 726.43 512.92 728.12 513.44 C 726.82 517.11 725.35 520.72 723.82 524.30 C 722.17 523.61 720.54 522.93 718.91 522.23 C 720.33 518.79 721.72 515.35 723.08 511.90 Z" />
<path fill="#91FFE7" opacity="1.00" d=" M 28.57 518.27 C 30.18 517.64 31.78 517.02 33.40 516.42 C 35.02 520.00 36.35 523.71 37.36 527.52 C 35.85 528.01 34.35 528.51 32.85 529.02 C 31.39 525.45 29.94 521.87 28.57 518.27 Z" />
<path fill="#91FFE7" opacity="1.00" d=" M 717.47 525.91 C 719.10 526.54 720.73 527.19 722.37 527.85 C 720.86 531.38 719.33 534.90 717.73 538.39 C 716.11 537.62 714.51 536.83 712.91 536.04 C 714.46 532.68 715.97 529.30 717.47 525.91 Z" />
<path fill="#91FFE7" opacity="1.00" d=" M 34.67 532.24 C 36.19 531.66 37.72 531.08 39.24 530.52 C 40.90 533.83 42.47 537.18 43.89 540.60 C 42.48 541.45 41.08 542.30 39.67 543.16 C 37.52 539.75 35.89 536.06 34.67 532.24 Z" />
<path fill="#91FFE7" opacity="1.00" d=" M 711.31 539.72 C 712.89 540.47 714.48 541.25 716.06 542.03 C 714.40 545.40 712.67 548.72 710.93 552.05 C 709.50 551.53 708.08 551.02 706.66 550.52 C 707.68 546.71 709.34 543.12 711.31 539.72 Z" />
<path fill="#91FFE7" opacity="1.00" d=" M 41.01 546.79 C 42.62 545.90 44.24 545.04 45.88 544.21 C 47.69 547.57 49.29 551.06 50.55 554.67 C 49.23 555.34 47.90 556.01 46.58 556.69 C 44.58 553.47 42.77 550.14 41.01 546.79 Z" />
<path fill="#91FFE7" opacity="1.00" d=" M 698.89 563.09 C 701.15 560.01 702.17 555.61 705.30 553.46 C 706.59 554.26 707.88 555.08 709.17 555.90 C 707.38 559.10 705.55 562.27 703.72 565.45 C 702.10 564.67 700.49 563.88 698.89 563.09 Z" />
<path fill="#91FFE7" opacity="1.00" d=" M 47.95 559.94 C 49.54 559.21 51.14 558.49 52.74 557.79 C 54.63 560.85 56.42 563.97 58.16 567.12 C 56.80 568.15 55.44 569.18 54.08 570.21 C 51.89 566.87 49.87 563.44 47.95 559.94 Z" />
<path fill="#91FFE7" opacity="1.00" d=" M 691.40 576.02 C 693.21 572.96 695.06 569.92 696.88 566.87 C 698.42 567.30 699.97 567.75 701.54 568.21 C 699.95 571.98 697.97 575.57 695.86 579.07 C 694.36 578.05 692.87 577.04 691.40 576.02 Z" />
<path fill="#91FFE7" opacity="1.00" d=" M 55.51 572.80 C 61.14 568.74 63.58 576.19 65.97 580.01 C 64.69 581.09 63.40 582.17 62.11 583.25 C 59.64 579.94 57.42 576.46 55.51 572.80 Z" />
<path fill="#91FFE7" opacity="1.00" d=" M 683.26 588.93 C 685.09 585.71 687.05 582.58 689.10 579.51 C 690.60 580.31 692.10 581.12 693.60 581.95 C 691.70 585.36 689.56 588.64 687.17 591.73 C 685.85 590.79 684.55 589.86 683.26 588.93 Z" />
<path fill="#91FFE7" opacity="1.00" d=" M 63.97 586.23 C 65.32 585.34 66.66 584.45 68.02 583.57 C 70.61 587.38 77.66 593.35 70.22 595.89 C 68.03 592.74 65.93 589.53 63.97 586.23 Z" />
<path fill="#91FFE7" opacity="1.00" d=" M 674.57 601.67 C 676.28 598.10 678.51 594.82 681.03 591.78 C 682.35 592.85 683.68 593.94 685.01 595.03 C 682.95 598.08 680.81 601.07 678.70 604.07 C 677.31 603.27 675.94 602.46 674.57 601.67 Z" />
<path fill="#91FFE7" opacity="1.00" d=" M 79.77 608.27 C 76.75 604.75 69.71 598.96 76.65 595.79 C 79.01 598.80 81.24 601.90 83.45 605.03 C 82.23 606.10 81.00 607.18 79.77 608.27 Z" />
<path fill="#91FFE7" opacity="1.00" d=" M 672.12 604.06 C 673.42 605.12 674.73 606.17 676.04 607.24 C 673.86 610.36 671.52 613.37 669.02 616.24 C 667.64 615.21 666.27 614.18 664.91 613.16 C 667.22 610.05 669.62 607.02 672.12 604.06 Z" />
<path fill="#91FFE7" opacity="1.00" d=" M 81.83 611.07 C 83.21 610.12 84.59 609.18 85.98 608.25 C 88.34 611.03 90.58 613.91 92.70 616.88 C 91.63 618.02 90.55 619.16 89.48 620.31 C 86.58 617.54 84.06 614.40 81.83 611.07 Z" />
<path fill="#91FFE7" opacity="1.00" d=" M 658.72 628.09 C 652.65 623.87 660.17 619.24 663.12 615.76 C 669.07 620.03 661.88 624.76 658.72 628.09 Z" />
<path fill="#91FFE7" opacity="1.00" d=" M 91.69 622.48 C 93.05 621.62 94.42 620.77 95.80 619.93 C 98.08 622.71 100.38 625.47 102.59 628.31 C 101.29 629.53 99.98 630.74 98.65 631.93 C 96.14 628.93 93.71 625.84 91.69 622.48 Z" />
<path fill="#91FFE7" opacity="1.00" d=" M 644.94 635.94 C 647.44 633.01 650.10 630.21 652.88 627.53 C 654.08 628.69 655.29 629.86 656.50 631.04 C 654.06 633.86 651.50 636.58 648.87 639.22 C 647.55 638.13 646.24 637.03 644.94 635.94 Z" />
<path fill="#91FFE7" opacity="1.00" d=" M 101.70 634.39 C 102.88 633.34 104.06 632.30 105.25 631.27 C 108.12 633.82 110.79 636.60 113.15 639.63 C 112.03 640.77 110.90 641.91 109.78 643.06 C 106.89 640.36 104.17 637.48 101.70 634.39 Z" />
<path fill="#91FFE7" opacity="1.00" d=" M 637.67 650.39 C 632.04 645.74 639.37 641.86 642.76 638.69 C 643.90 639.79 645.04 640.90 646.18 642.01 C 643.53 644.98 640.70 647.79 637.67 650.39 Z" />
<path fill="#91FFE7" opacity="1.00" d=" M 112.22 645.86 C 113.45 644.67 114.69 643.50 115.93 642.35 C 118.84 644.87 121.65 647.51 124.34 650.26 C 119.92 655.98 115.69 648.98 112.22 645.86 Z" />
<path fill="#91FFE7" opacity="1.00" d=" M 623.40 657.09 C 626.56 653.85 631.31 646.72 635.41 652.75 C 632.65 655.49 629.80 658.15 626.88 660.72 C 625.71 659.50 624.55 658.29 623.40 657.09 Z" />
<path fill="#91FFE7" opacity="1.00" d=" M 126.41 652.58 C 129.51 654.91 132.43 657.46 135.22 660.16 C 134.12 661.45 133.02 662.75 131.92 664.05 C 128.88 661.66 125.99 659.08 123.30 656.31 C 124.33 655.05 125.37 653.81 126.41 652.58 Z" />
<path fill="#91FFE7" opacity="1.00" d=" M 611.80 666.91 C 614.56 664.34 617.39 661.85 620.23 659.37 C 621.44 660.57 622.65 661.78 623.86 663.00 C 621.16 665.76 618.24 668.28 615.15 670.59 C 614.03 669.36 612.91 668.13 611.80 666.91 Z" />
<path fill="#91FFE7" opacity="1.00" d=" M 146.91 670.04 C 144.07 677.48 131.15 667.02 137.79 662.54 C 140.95 664.88 144.01 667.37 146.91 670.04 Z" />
<path fill="#91FFE7" opacity="1.00" d=" M 600.00 676.12 C 602.88 673.69 605.84 671.35 608.89 669.12 C 609.97 670.42 611.05 671.73 612.13 673.04 C 609.21 675.59 606.14 677.96 602.95 680.16 C 601.95 678.81 600.97 677.47 600.00 676.12 Z" />
<path fill="#91FFE7" opacity="1.00" d=" M 146.71 676.10 C 147.77 674.82 148.84 673.55 149.91 672.30 C 152.88 674.43 155.78 676.66 158.57 679.04 C 157.68 680.44 156.79 681.84 155.90 683.25 C 152.67 681.08 149.60 678.70 146.71 676.10 Z" />
<path fill="#91FFE7" opacity="1.00" d=" M 590.57 689.31 C 584.82 684.30 593.16 681.06 596.99 678.53 C 598.02 679.87 599.04 681.21 600.07 682.57 C 596.93 684.86 593.78 687.13 590.57 689.31 Z" />
<path fill="#91FFE7" opacity="1.00" d=" M 161.20 681.34 C 164.82 683.08 168.14 685.37 171.13 688.04 C 170.13 689.36 169.12 690.69 168.12 692.01 C 165.21 690.02 162.32 688.00 159.42 686.00 C 160.01 684.43 160.60 682.88 161.20 681.34 Z" />
<path fill="#91FFE7" opacity="1.00" d=" M 575.23 693.60 C 578.32 691.08 581.61 688.82 585.12 686.90 C 589.73 692.71 581.65 695.32 577.42 697.44 C 576.68 696.15 575.95 694.87 575.23 693.60 Z" />
<path fill="#91FFE7" opacity="1.00" d=" M 171.24 693.72 C 174.71 687.23 180.08 693.70 184.06 696.16 C 183.07 697.55 182.09 698.94 181.10 700.34 C 177.69 698.31 174.37 696.15 171.24 693.72 Z" />
<path fill="#91FFE7" opacity="1.00" d=" M 562.15 701.04 C 565.46 698.97 568.89 697.07 572.53 695.64 C 573.13 697.10 573.73 698.57 574.33 700.04 C 571.14 702.09 567.83 703.95 564.32 705.39 C 563.59 703.93 562.87 702.49 562.15 701.04 Z" />
<path fill="#91FFE7" opacity="1.00" d=" M 186.94 697.87 C 190.48 699.67 193.90 701.68 197.17 703.93 C 196.18 705.32 195.19 706.72 194.19 708.11 C 191.02 706.29 187.86 704.46 184.70 702.62 C 185.43 701.02 186.18 699.44 186.94 697.87 Z" />
<path fill="#91FFE7" opacity="1.00" d=" M 548.71 708.75 C 552.06 706.72 555.51 704.87 559.08 703.25 C 559.80 704.75 560.52 706.26 561.24 707.78 C 558.01 709.64 554.69 711.35 551.24 712.77 C 550.39 711.42 549.55 710.08 548.71 708.75 Z" />
<path fill="#91FFE7" opacity="1.00" d=" M 199.99 705.59 C 203.51 707.07 206.92 708.78 210.20 710.74 C 209.62 712.20 209.04 713.66 208.47 715.14 C 204.91 713.79 201.45 712.18 198.03 710.51 C 198.67 708.86 199.32 707.22 199.99 705.59 Z" />
<path fill="#91FFE7" opacity="1.00" d=" M 536.91 720.12 C 533.77 713.70 541.77 711.82 546.43 710.68 C 546.92 712.09 547.43 713.51 547.94 714.94 C 544.33 716.80 540.69 718.63 536.91 720.12 Z" />
<path fill="#91FFE7" opacity="1.00" d=" M 213.25 712.55 C 216.86 714.00 220.41 715.60 223.90 717.33 C 223.25 718.87 222.59 720.41 221.93 721.96 C 218.33 720.57 214.82 718.97 211.43 717.15 C 212.03 715.61 212.64 714.07 213.25 712.55 Z" />
<path fill="#91FFE7" opacity="1.00" d=" M 521.53 721.61 C 524.96 719.90 528.45 718.30 531.97 716.76 C 532.63 718.41 533.29 720.06 533.94 721.72 C 530.51 723.25 527.06 724.72 523.59 726.14 C 522.90 724.62 522.21 723.11 521.53 721.61 Z" />
<path fill="#91FFE7" opacity="1.00" d=" M 227.15 718.95 C 230.80 720.24 234.36 721.76 237.88 723.38 C 237.19 724.97 236.49 726.57 235.80 728.17 C 232.33 726.90 228.96 725.40 225.63 723.83 C 226.12 722.19 226.63 720.56 227.15 718.95 Z" />
<path fill="#91FFE7" opacity="1.00" d=" M 507.66 727.07 C 511.15 725.38 514.83 724.11 518.64 723.36 C 519.14 724.72 519.65 726.09 520.17 727.47 C 516.58 729.23 512.88 730.75 509.09 732.01 C 508.60 730.36 508.13 728.71 507.66 727.07 Z" />
<path fill="#91FFE7" opacity="1.00" d=" M 239.29 729.34 C 240.08 727.71 240.88 726.10 241.70 724.49 C 244.99 726.29 248.49 727.60 252.05 728.79 C 251.56 730.34 251.07 731.90 250.59 733.47 C 246.69 732.48 242.90 731.10 239.29 729.34 Z" />
<path fill="#91FFE7" opacity="1.00" d=" M 493.82 732.33 C 496.88 729.99 500.81 729.45 504.50 728.82 C 504.94 730.27 505.39 731.72 505.84 733.18 C 502.10 734.58 492.98 740.09 493.82 732.33 Z" />
<path fill="#91FFE7" opacity="1.00" d=" M 255.83 729.93 C 259.32 731.19 262.82 732.42 266.30 733.73 C 265.77 735.31 265.25 736.90 264.73 738.50 C 261.07 737.40 257.43 736.23 253.82 735.00 C 254.48 733.30 255.14 731.61 255.83 729.93 Z" />
<path fill="#91FFE7" opacity="1.00" d=" M 479.09 736.35 C 483.42 735.25 491.47 730.67 491.29 738.55 C 487.57 739.62 483.82 740.55 480.01 741.23 C 479.69 739.60 479.38 737.97 479.09 736.35 Z" />
<path fill="#91FFE7" opacity="1.00" d=" M 269.74 734.70 C 273.55 735.65 277.33 736.72 281.03 738.07 C 280.41 739.69 279.80 741.30 279.18 742.92 C 275.65 741.91 272.13 740.87 268.64 739.77 C 268.99 738.07 269.36 736.38 269.74 734.70 Z" />
<path fill="#91FFE7" opacity="1.00" d=" M 464.07 740.35 C 467.95 739.33 471.86 738.42 475.82 737.82 C 475.87 739.53 475.93 741.26 475.99 742.99 C 472.40 743.85 468.80 744.64 465.16 745.25 C 464.79 743.61 464.42 741.97 464.07 740.35 Z" />
<path fill="#91FFE7" opacity="1.00" d=" M 284.30 739.04 C 288.00 739.64 291.67 740.42 295.32 741.30 C 296.55 749.64 287.38 744.87 283.11 743.71 C 283.50 742.14 283.90 740.59 284.30 739.04 Z" />
<path fill="#91FFE7" opacity="1.00" d=" M 449.77 743.87 C 453.26 742.88 456.75 741.92 460.24 740.98 C 464.74 747.95 454.54 748.49 449.88 748.44 C 449.84 746.91 449.80 745.39 449.77 743.87 Z" />
<path fill="#91FFE7" opacity="1.00" d=" M 299.35 742.44 C 303.22 743.13 307.07 743.90 310.87 744.92 C 310.19 746.52 309.51 748.14 308.84 749.76 C 305.20 749.05 301.58 748.28 298.02 747.26 C 298.46 745.65 298.90 744.04 299.35 742.44 Z" />
<path fill="#91FFE7" opacity="1.00" d=" M 434.83 746.06 C 438.62 745.36 442.43 744.68 446.29 744.56 C 446.20 746.31 446.11 748.07 446.02 749.84 C 442.35 750.43 438.67 750.95 434.96 751.20 C 434.90 749.48 434.86 747.76 434.83 746.06 Z" />
<path fill="#91FFE7" opacity="1.00" d=" M 314.30 745.25 C 317.81 745.82 321.31 746.50 324.81 747.19 C 324.78 748.82 324.75 750.46 324.72 752.11 C 320.61 751.85 316.53 751.20 312.55 750.15 C 313.12 748.50 313.70 746.87 314.30 745.25 Z" />
<path fill="#91FFE7" opacity="1.00" d=" M 419.88 748.07 C 423.50 747.69 427.11 747.26 430.74 746.94 C 431.08 748.60 431.43 750.27 431.77 751.95 C 427.84 752.59 423.88 753.02 419.90 753.16 C 419.88 751.45 419.88 749.76 419.88 748.07 Z" />
<path fill="#91FFE7" opacity="1.00" d=" M 328.82 747.56 C 332.67 747.79 336.50 748.23 340.30 748.91 C 340.20 750.64 340.11 752.38 340.02 754.14 C 336.09 753.68 332.18 753.12 328.27 752.60 C 328.45 750.91 328.63 749.23 328.82 747.56 Z" />
<path fill="#91FFE7" opacity="1.00" d=" M 344.06 748.81 C 348.10 749.08 352.10 749.74 356.04 750.70 C 355.64 752.26 355.25 753.84 354.86 755.42 C 351.11 755.23 347.39 754.78 343.70 754.16 C 343.81 752.36 343.93 750.58 344.06 748.81 Z" />
<path fill="#91FFE7" opacity="1.00" d=" M 404.74 749.11 C 408.55 748.95 412.37 748.89 416.18 748.92 C 416.19 750.60 416.20 752.29 416.20 753.99 C 412.37 754.25 408.54 754.59 404.72 754.98 C 404.70 753.02 404.71 751.06 404.74 749.11 Z" />
<path fill="#91FFE7" opacity="1.00" d=" M 359.29 750.19 C 362.89 750.10 366.49 750.09 370.09 750.16 C 370.09 752.04 370.09 753.93 370.08 755.83 C 366.26 755.69 362.44 755.51 358.63 755.22 C 358.84 753.53 359.06 751.86 359.29 750.19 Z" />
<path fill="#91FFE7" opacity="1.00" d=" M 374.01 750.87 C 377.82 750.55 381.64 750.37 385.47 750.38 C 385.54 752.15 385.61 753.92 385.69 755.71 C 381.83 756.13 377.95 756.28 374.07 756.17 C 374.04 754.40 374.02 752.63 374.01 750.87 Z" />
<path fill="#91FFE7" opacity="1.00" d=" M 389.12 750.30 C 393.03 750.09 396.96 750.06 400.89 750.13 C 400.95 751.81 401.01 753.51 401.08 755.21 C 397.14 755.53 393.19 755.62 389.24 755.59 C 389.19 753.82 389.14 752.05 389.12 750.30 Z" />
</g>
<g id="#ffffffff">
<path fill="#ffffff" opacity="1.00" d=" M 360.35 318.36 C 383.49 310.03 411.27 320.20 423.80 341.27 C 434.22 357.71 434.56 379.97 424.82 396.79 C 414.40 397.33 402.71 399.04 393.84 392.18 C 373.52 407.57 342.33 385.01 352.07 360.94 C 359.54 338.74 386.21 342.24 404.70 342.99 C 404.83 356.38 404.36 369.78 404.93 383.16 C 408.79 383.32 412.66 383.22 416.51 382.79 C 423.96 361.46 410.46 336.02 388.49 330.54 C 367.47 324.19 343.34 338.12 338.38 359.50 C 331.79 381.29 347.85 406.22 370.24 409.77 C 383.48 412.75 396.55 407.14 406.80 399.07 C 409.92 401.98 412.91 405.04 415.73 408.25 C 393.47 432.30 350.14 427.82 332.82 400.13 C 312.38 372.34 327.29 328.14 360.35 318.36 M 365.70 363.71 C 359.66 373.98 371.54 387.36 382.47 382.52 C 393.14 378.55 391.87 365.48 391.06 356.31 C 382.38 356.44 370.37 354.13 365.70 363.71 Z" />
</g>
</svg>
